<?xml version="1.0" standalone="no"?>
<!DOCTYPE svg PUBLIC "-//W3C//DTD SVG 20010904//EN"
 "http://www.w3.org/TR/2001/REC-SVG-20010904/DTD/svg10.dtd">
<svg version="1.0" xmlns="http://www.w3.org/2000/svg"
 width="700.000000pt" height="700.000000pt" viewBox="0 0 700.000000 700.000000"
 preserveAspectRatio="xMidYMid meet">
<metadata>
Created by potrace 1.11, written by Peter Selinger 2001-2013
</metadata>
<g transform="translate(0.000000,700.000000) scale(0.100000,-0.100000)"
fill="#000000" stroke="none">
<path d="M3013 6183 c-4 -11 -8 -11 -20 -2 -11 10 -17 9 -29 -4 -8 -9 -9 -12
-2 -7 7 6 17 10 23 10 5 0 1 -7 -9 -15 -14 -11 -23 -12 -33 -4 -10 9 -13 8
-13 -1 0 -7 -7 -10 -16 -6 -14 5 -15 4 -4 -9 11 -13 10 -14 -5 -9 -12 5 -16 4
-11 -4 10 -16 -11 -24 -34 -12 -16 9 -20 8 -20 -4 0 -9 -11 -18 -25 -22 -14
-3 -22 -10 -19 -15 3 -5 1 -9 -5 -9 -5 0 -12 6 -15 13 -2 6 -4 3 -3 -8 2 -11
7 -27 12 -35 8 -13 6 -13 -8 -2 -19 16 -39 8 -31 -12 3 -8 0 -17 -5 -21 -6 -3
-9 -11 -6 -16 4 -5 2 -9 -4 -9 -6 0 -7 -7 -4 -17 5 -11 3 -14 -6 -8 -11 6 -11
3 0 -16 11 -21 10 -22 -2 -12 -12 10 -15 8 -16 -8 -1 -13 2 -17 10 -12 7 4 4
-6 -7 -21 -11 -18 -13 -26 -5 -21 8 3 5 -1 -5 -9 -11 -9 -16 -16 -10 -16 5 0
2 -5 -6 -10 -12 -8 -12 -10 -1 -10 9 0 12 -10 9 -35 -2 -19 0 -35 5 -35 5 0 7
-7 3 -15 -3 -8 -1 -15 4 -15 5 0 7 -7 4 -15 -4 -10 0 -15 12 -16 11 0 14 -3 7
-6 -10 -4 -10 -7 0 -18 30 -34 35 -43 30 -49 -4 -3 1 -6 11 -6 10 0 24 -6 31
-12 40 -36 43 -38 48 -25 3 7 6 2 6 -11 1 -13 5 -20 11 -17 6 3 10 1 10 -6 0
-8 5 -7 17 2 11 10 14 10 9 2 -4 -7 -3 -13 2 -13 5 0 10 -20 10 -45 1 -27 -3
-43 -8 -40 -13 8 -13 -2 1 -27 8 -15 8 -19 0 -14 -6 4 -11 3 -11 -3 0 -5 5
-13 10 -16 8 -5 8 -11 0 -20 -8 -10 -7 -14 2 -17 11 -4 11 -8 0 -20 -10 -12
-10 -17 -1 -20 9 -3 9 -9 0 -26 -9 -17 -9 -22 1 -22 6 0 3 -7 -8 -16 -10 -8
-13 -13 -6 -9 6 3 12 2 12 -4 0 -5 -6 -12 -12 -14 -9 -4 -9 -6 1 -6 11 -1 10
-5 -5 -17 -10 -8 -13 -13 -6 -9 8 4 12 -3 13 -22 0 -15 2 -36 4 -46 2 -9 -1
-15 -6 -11 -5 3 -6 10 -3 16 4 7 2 8 -4 4 -9 -5 -9 -13 -1 -28 6 -11 8 -29 6
-40 -3 -11 0 -21 8 -24 7 -3 16 -13 19 -21 5 -13 4 -14 -8 -4 -12 10 -14 9
-12 -6 2 -10 8 -18 14 -18 6 0 14 -4 19 -9 4 -5 3 -6 -3 -3 -7 4 -17 0 -24 -8
-9 -11 -9 -15 -1 -15 7 0 9 -5 6 -10 -4 -6 -11 -7 -17 -4 -6 4 -6 -2 1 -15 9
-17 8 -24 -8 -40 -18 -18 -19 -22 -5 -36 9 -8 11 -15 5 -15 -6 0 -11 -5 -11
-11 0 -5 6 -7 13 -3 8 5 8 2 -2 -9 -12 -15 -11 -17 5 -17 18 -1 18 -1 2 -11
-10 -5 -18 -15 -18 -20 0 -6 6 -7 13 -3 9 6 9 5 0 -8 -7 -8 -9 -19 -5 -23 4
-5 2 -5 -5 -2 -7 4 -15 -5 -22 -25 -14 -39 -14 -41 2 -33 6 4 3 -1 -8 -10 -11
-8 -20 -21 -21 -28 -3 -34 -5 -38 -16 -31 -8 5 -9 2 -5 -9 5 -13 1 -17 -16
-17 -18 0 -19 -2 -7 -10 12 -8 11 -10 -6 -10 -11 0 -29 -10 -40 -22 l-19 -23
25 20 25 20 -18 -22 c-10 -11 -26 -20 -35 -18 -9 1 -22 -7 -29 -19 -7 -11 -12
-15 -13 -8 0 7 -5 10 -10 7 -6 -4 -8 -10 -5 -15 3 -4 -3 -7 -12 -6 -10 2 -21
-4 -25 -13 -6 -14 -7 -14 -7 2 -1 23 -10 22 -37 -8 -12 -14 -29 -22 -37 -19
-8 2 -20 -2 -27 -11 -10 -12 -16 -13 -28 -3 -13 10 -14 10 -8 1 4 -8 1 -13 -8
-13 -9 0 -16 -4 -16 -9 0 -5 -9 -7 -20 -4 -12 3 -20 0 -20 -6 0 -7 5 -9 12 -5
7 4 8 3 4 -5 -4 -6 -13 -8 -19 -4 -18 11 -38 12 -31 2 3 -5 11 -6 17 -3 7 4 8
3 4 -2 -5 -5 -14 -9 -20 -9 -7 0 -12 -6 -12 -14 0 -8 -7 -16 -15 -18 -9 -3
-11 -1 -5 4 6 4 11 14 10 21 0 14 -19 17 -21 2 -3 -23 -5 -24 -14 -10 -8 13
-10 13 -10 -2 0 -17 -33 -42 -42 -32 -3 2 -11 -3 -19 -13 -9 -11 -10 -14 -1
-9 20 12 14 -8 -7 -24 -20 -14 -19 -36 1 -24 7 4 8 2 4 -4 -9 -15 -12 -15 -30
4 -15 14 -16 14 -16 0 0 -9 5 -16 10 -16 7 0 7 -4 0 -12 -6 -7 -17 -22 -25
-33 -13 -18 -14 -18 -9 -1 6 17 5 17 -17 5 -13 -7 -28 -12 -32 -11 -5 1 -5 -3
-1 -10 4 -6 8 -22 9 -34 0 -19 -2 -21 -15 -11 -8 6 -12 8 -8 3 4 -5 1 -15 -7
-22 -8 -8 -12 -21 -9 -29 4 -9 0 -15 -7 -15 -11 0 -11 -3 1 -10 13 -8 12 -10
-2 -10 -10 0 -18 -4 -18 -10 0 -5 5 -10 11 -10 5 0 -3 -12 -18 -26 -15 -14
-23 -23 -16 -20 6 4 14 2 18 -4 3 -5 -1 -10 -9 -10 -10 0 -13 -6 -9 -17 4 -11
3 -14 -5 -9 -7 4 -12 2 -12 -3 0 -6 5 -11 11 -11 5 0 7 -5 4 -10 -4 -6 -10 -8
-15 -5 -5 3 -7 -4 -5 -16 3 -13 10 -26 17 -31 7 -4 8 -8 3 -8 -6 0 -17 6 -24
13 -7 6 -12 8 -11 2 5 -26 -1 -56 -10 -50 -6 4 -10 3 -9 -2 1 -4 0 -10 -1 -13
-7 -19 -7 -39 1 -35 5 4 6 -1 3 -9 -3 -9 -11 -13 -18 -9 -6 4 -4 -2 4 -12 12
-15 12 -17 1 -10 -11 6 -13 4 -8 -8 3 -10 2 -17 -4 -17 -6 0 -7 -4 -4 -10 3
-5 0 -10 -7 -10 -8 0 -9 -3 -3 -8 6 -4 11 -15 11 -25 2 -15 -1 -16 -14 -5 -13
12 -14 10 -3 -9 9 -18 9 -23 -1 -23 -8 -1 -5 -7 6 -15 11 -8 14 -15 7 -15 -7
0 -9 -5 -6 -10 4 -6 1 -9 -7 -8 -8 2 -12 -5 -11 -20 2 -13 -1 -21 -7 -17 -6 4
-6 -3 0 -21 6 -15 8 -29 5 -32 -3 -3 -5 0 -5 6 0 16 -16 15 -18 0 -3 -30 -11
-64 -18 -82 -5 -14 -4 -17 4 -12 16 10 15 -6 0 -23 -7 -8 -8 -11 -3 -8 6 3 11
-4 12 -16 0 -12 -1 -16 -4 -9 -6 17 -20 15 -27 -4 -3 -8 -2 -12 4 -9 6 3 10 1
10 -4 0 -6 -4 -11 -10 -11 -5 0 -10 -5 -10 -11 0 -5 6 -7 13 -4 6 4 2 -2 -11
-14 -13 -11 -18 -22 -12 -26 5 -3 10 -1 10 6 0 7 3 9 6 6 10 -10 -17 -38 -29
-30 -6 3 -7 1 -3 -6 4 -6 12 -9 17 -6 5 3 6 -1 3 -9 -3 -9 -10 -14 -14 -11 -5
3 -6 -5 -2 -17 4 -16 2 -19 -9 -13 -8 5 -11 4 -6 0 4 -5 0 -16 -8 -25 -13 -14
-13 -17 0 -17 8 0 11 5 8 10 -4 6 -1 7 7 2 10 -6 7 -12 -10 -25 -14 -10 -20
-22 -15 -29 4 -7 -1 -18 -11 -26 -18 -13 -17 -14 6 -10 23 4 24 3 7 -10 -18
-13 -18 -13 0 -18 15 -4 15 -5 1 -6 -11 -1 -15 -7 -11 -21 3 -11 10 -17 17
-14 6 3 4 0 -5 -8 -9 -7 -15 -23 -14 -35 1 -18 -1 -20 -12 -12 -18 16 -16 4 3
-15 8 -9 11 -16 5 -16 -6 0 -11 -7 -11 -16 0 -8 -5 -12 -10 -9 -6 4 -5 -4 1
-19 7 -14 16 -23 22 -19 6 3 7 1 3 -6 -5 -8 -12 -9 -20 -2 -8 7 -12 4 -12 -10
0 -11 5 -17 12 -15 7 3 10 -3 7 -15 -3 -11 0 -19 8 -19 7 0 9 -3 6 -6 -4 -4
-12 -2 -20 4 -10 8 -13 6 -13 -8 0 -10 3 -17 7 -14 4 2 10 -3 13 -12 3 -8 2
-12 -4 -9 -6 3 -10 1 -10 -4 0 -6 5 -11 11 -11 8 0 7 -5 -1 -15 -11 -13 -10
-14 6 -9 10 4 16 4 12 -1 -4 -4 -3 -14 3 -21 7 -8 7 -14 -1 -19 -6 -4 -9 -1
-8 6 2 6 -4 14 -12 16 -10 3 -11 2 -4 -4 6 -4 10 -18 9 -30 -1 -17 2 -20 10
-13 9 8 12 3 9 -20 -3 -28 -2 -31 18 -24 21 6 21 6 5 -10 -21 -21 -21 -21 -1
-40 12 -12 12 -16 2 -16 -10 0 -10 -2 -1 -8 7 -4 13 -22 15 -40 1 -18 6 -32
10 -32 4 0 8 -9 8 -20 0 -11 6 -20 13 -20 8 0 7 -4 -3 -10 -13 -9 -8 -14 12
-11 3 0 6 -14 6 -32 -1 -17 2 -39 5 -47 4 -8 9 -26 11 -40 2 -14 9 -24 15 -23
7 2 8 -5 1 -22 -6 -15 -6 -26 0 -30 7 -4 6 -13 0 -26 -6 -10 -7 -19 -3 -19 4
0 -2 -7 -13 -16 -10 -8 -13 -12 -5 -8 9 5 12 3 7 -4 -4 -7 -15 -12 -25 -12
-10 0 -26 -10 -35 -23 -9 -12 -15 -17 -12 -11 7 13 -50 12 -62 -1 -4 -5 0 -5
8 0 9 5 12 5 7 -1 -5 -5 -19 -9 -30 -9 -13 0 -21 -5 -19 -13 2 -9 -2 -11 -10
-6 -25 16 -38 13 -28 -6 7 -14 6 -17 -8 -16 -9 0 -17 -5 -18 -11 -1 -7 -2 -16
-3 -19 0 -4 -9 0 -18 7 -15 12 -16 12 -10 -5 6 -16 5 -17 -8 -6 -13 11 -16 11
-13 0 2 -7 -3 -15 -11 -18 -8 -3 -11 0 -7 7 5 8 0 8 -19 -1 -14 -6 -24 -17
-21 -23 2 -7 -5 -20 -15 -29 -11 -9 -17 -22 -13 -28 4 -7 3 -8 -4 -4 -8 5 -8
13 0 31 6 13 15 22 21 18 6 -4 7 -1 2 6 -5 9 -18 1 -45 -28 -21 -22 -41 -37
-46 -33 -5 4 -2 -1 5 -10 7 -10 9 -18 5 -18 -17 0 -64 -51 -58 -62 4 -7 2 -8
-4 -4 -7 4 -12 1 -12 -9 0 -9 -4 -13 -10 -10 -6 3 -7 -1 -4 -9 3 -9 1 -16 -6
-16 -6 0 -8 -5 -5 -11 4 -6 -1 -17 -11 -25 -18 -14 -18 -14 0 -7 13 4 17 3 12
-5 -13 -22 -15 -52 -3 -52 7 0 6 -4 -3 -10 -13 -9 -13 -10 0 -10 13 0 13 -1 0
-10 -13 -9 -13 -10 0 -10 13 0 13 -1 0 -10 -12 -8 -12 -10 -1 -10 11 0 11 -3
1 -15 -10 -12 -10 -15 1 -15 10 0 10 -3 1 -12 -8 -8 -8 -16 0 -32 10 -19 10
-20 -5 -8 -14 12 -15 11 -7 -17 6 -22 5 -31 -3 -31 -8 0 -9 -2 -1 -8 6 -4 10
-22 8 -40 -1 -18 1 -30 6 -27 10 6 8 -15 -3 -32 -5 -8 -3 -13 3 -13 6 0 8 -5
4 -12 -12 -20 -12 -52 0 -61 8 -5 6 -11 -5 -20 -9 -6 -14 -18 -12 -24 3 -7 0
-14 -6 -14 -6 -1 -15 -3 -21 -4 -5 -1 -12 -3 -15 -4 -3 0 -1 -9 4 -19 8 -16 6
-18 -20 -16 -16 1 -26 -2 -23 -7 3 -5 10 -7 15 -4 5 4 9 4 9 1 0 -11 -58 -35
-66 -28 -5 4 -2 -1 5 -11 12 -15 12 -17 -1 -12 -20 8 -42 -20 -35 -45 3 -11 1
-18 -4 -14 -5 3 -9 0 -9 -6 0 -6 -5 -8 -10 -5 -6 4 -10 3 -9 -2 3 -18 -3 -47
-8 -35 -8 21 -21 13 -18 -13 2 -20 0 -23 -11 -14 -11 9 -14 6 -14 -17 0 -22
-3 -26 -10 -14 -8 13 -10 13 -11 -2 -3 -39 -5 -43 -22 -42 -13 2 -15 -1 -7
-11 7 -9 5 -16 -7 -26 -16 -13 -17 -12 -4 4 12 15 12 17 -2 11 -8 -3 -18 -12
-21 -20 -5 -12 350 -14 2540 -14 1728 0 2543 3 2539 10 -4 6 -11 8 -16 4 -5
-3 -9 -2 -8 3 4 21 -2 33 -16 33 -8 0 -15 5 -15 10 0 6 -8 10 -17 10 -9 0 -13
3 -10 7 4 3 -2 13 -14 21 -13 9 -19 21 -16 34 4 14 -7 33 -39 64 -24 25 -44
48 -44 52 0 4 -9 13 -20 20 -12 7 -18 17 -15 22 4 6 -1 13 -9 16 -9 3 -13 10
-10 15 3 5 -2 9 -11 9 -9 0 -13 4 -10 10 3 5 2 10 -3 10 -18 0 -22 30 -7 48 8
9 15 20 16 24 0 4 16 23 35 43 19 20 32 40 29 45 -4 6 -2 10 3 10 5 0 8 13 7
30 -1 17 2 27 8 23 6 -4 8 5 5 21 -3 14 -2 26 3 26 4 0 6 9 4 20 -2 11 -1 20
3 20 4 0 7 34 7 75 0 44 4 75 10 75 5 0 4 4 -4 9 -7 5 -10 14 -7 20 4 6 3 11
-3 11 -5 0 -8 9 -6 20 2 11 -1 20 -7 20 -6 0 -6 6 2 15 11 13 10 14 -5 9 -12
-5 -16 -4 -12 3 4 6 0 14 -9 17 -13 5 -14 9 -3 22 10 12 10 15 -2 12 -8 -2
-13 3 -12 10 2 6 -2 12 -7 12 -6 0 -10 7 -10 15 0 19 -20 55 -42 76 -10 9 -18
21 -18 28 0 6 -6 10 -12 8 -7 -1 -12 3 -11 10 2 8 -4 10 -14 6 -11 -4 -14 -3
-9 5 4 7 3 12 -1 12 -20 0 -10 44 13 62 13 11 24 25 24 31 0 6 -7 1 -16 -11
-8 -12 -19 -22 -25 -22 -5 0 1 10 13 22 13 13 27 22 32 20 4 -1 14 2 20 8 7 5
16 6 20 2 4 -4 7 -2 6 3 -5 21 0 36 10 30 6 -3 10 1 10 9 0 9 5 16 10 16 6 0
10 6 10 14 0 8 7 21 15 30 9 8 16 18 15 21 -1 18 1 22 14 22 8 0 16 -11 19
-24 2 -12 1 -23 -3 -23 -12 0 -4 -44 9 -48 9 -3 11 2 6 18 -5 17 -4 21 6 15 9
-6 11 -3 6 8 -4 10 -2 17 5 17 7 0 7 4 -1 14 -9 11 -9 16 0 22 8 5 9 3 4 -6
-5 -9 -4 -11 4 -6 6 4 8 13 4 19 -9 15 -12 47 -4 48 3 0 16 2 29 5 13 2 21 0
17 -5 -3 -5 0 -13 7 -17 7 -4 10 -4 6 1 -4 4 -3 14 3 21 6 8 8 21 5 30 -5 13
-3 14 7 6 10 -8 16 -6 27 11 12 20 12 21 -3 8 -25 -20 -21 -5 6 20 12 12 16
18 8 14 -10 -6 -12 -4 -7 4 5 7 15 10 24 6 9 -3 13 -3 9 1 -3 4 1 20 11 36 13
23 14 32 5 47 -10 15 -10 21 0 24 8 3 5 10 -8 21 -20 17 -20 17 2 6 21 -10 23
-8 19 12 -2 15 -10 23 -23 22 -12 0 -20 7 -21 20 -1 17 1 18 9 6 9 -13 10 -13
6 0 -2 8 -12 14 -22 12 -13 -3 -16 1 -13 16 3 11 0 19 -8 19 -7 0 -11 -4 -8
-9 3 -4 -3 -5 -12 -1 -11 4 -13 8 -6 11 7 2 12 8 12 13 0 6 -5 7 -12 3 -7 -5
-9 -2 -6 7 4 10 -1 15 -15 16 -21 2 -39 22 -31 34 2 4 -4 6 -13 4 -10 -1 -26
2 -35 7 -12 6 -18 5 -18 -2 0 -6 -6 -8 -12 -4 -9 5 -8 2 1 -9 12 -15 12 -17
-3 -11 -9 3 -16 11 -16 18 0 6 -4 4 -10 -4 -6 -9 -5 -17 3 -22 8 -5 6 -8 -6
-8 -10 0 -16 -4 -13 -8 3 -5 -2 -9 -10 -9 -10 0 -11 4 -4 11 18 18 11 27 -8 9
-13 -13 -16 -23 -10 -35 5 -10 4 -19 -4 -24 -6 -4 -8 -3 -4 4 3 6 2 13 -4 17
-5 3 -10 1 -10 -5 0 -6 -4 -9 -9 -5 -6 3 -8 -3 -6 -14 2 -13 -3 -21 -17 -24
-11 -3 -17 -10 -14 -16 4 -5 -3 -12 -14 -16 -11 -4 -18 -11 -15 -16 4 -5 1
-10 -4 -10 -6 -1 -15 -3 -21 -4 -5 -1 -13 -3 -16 -4 -4 0 -1 -8 6 -16 10 -12
8 -13 -10 -10 -18 4 -20 2 -9 -11 10 -12 9 -13 -4 -9 -8 4 -18 1 -23 -6 -4 -8
-3 -10 4 -5 7 4 12 2 12 -3 0 -6 -7 -11 -16 -11 -10 0 -14 -6 -11 -14 6 -14
-20 -44 -32 -38 -3 1 -7 -2 -7 -8 -1 -5 -3 -13 -4 -17 -1 -5 -2 -11 -1 -15 0
-4 -8 -5 -19 -3 -17 3 -18 1 -10 -14 8 -15 6 -18 -12 -17 -20 1 -25 -7 -30
-56 -1 -9 -6 -15 -10 -12 -4 3 -4 12 -1 22 4 13 2 13 -10 -3 -19 -23 -22 -39
-5 -29 6 4 8 3 5 -3 -4 -6 -20 -10 -36 -9 -20 1 -27 -2 -24 -11 3 -7 -2 -16
-11 -19 -9 -3 -13 -11 -10 -18 3 -6 -2 -2 -10 8 -9 11 -16 15 -16 9 0 -6 -7
-13 -14 -16 -10 -4 -13 -1 -10 8 3 8 -1 12 -13 12 -12 -2 -17 4 -16 18 1 19 1
19 -12 2 -11 -16 -13 -16 -19 -2 -3 9 -2 13 4 10 6 -3 10 -1 10 4 0 6 -5 11
-11 11 -8 0 -9 4 0 13 15 19 2 30 -18 15 -9 -7 -13 -8 -9 -4 4 5 0 15 -10 23
-16 14 -16 14 2 9 16 -6 17 -4 6 9 -7 8 -17 12 -23 8 -6 -4 -8 0 -4 10 3 10 2
17 -3 17 -6 0 -10 9 -10 20 0 11 -6 20 -12 20 -9 0 -8 4 2 10 12 8 12 10 -5
11 -17 1 -16 2 5 9 22 7 21 10 -9 14 -5 0 -13 5 -18 10 -5 5 -3 6 5 2 6 -4 12
-2 12 3 0 6 -4 11 -10 11 -5 0 -9 6 -7 13 1 6 -3 11 -10 10 -8 -2 -10 4 -6 14
4 11 3 14 -5 9 -8 -5 -10 -1 -5 10 5 12 3 15 -6 9 -10 -6 -11 -3 -1 15 8 15 8
20 1 16 -6 -4 -11 -2 -11 4 0 6 -4 9 -8 6 -5 -3 -9 1 -9 9 0 8 4 12 7 10 4 -3
8 7 8 20 0 19 -4 23 -13 15 -9 -8 -11 -4 -7 15 3 16 0 25 -8 25 -9 0 -9 4 1
17 10 11 10 14 2 9 -12 -6 -18 10 -15 36 1 3 -5 9 -13 12 -10 3 -12 0 -9 -12
5 -14 4 -15 -5 -2 -6 9 -7 18 -1 24 16 16 11 29 -5 16 -9 -7 -18 -10 -22 -6
-3 3 -2 6 4 6 14 0 12 24 -4 38 -10 10 -13 10 -13 1 0 -7 -3 -10 -6 -7 -3 4
-1 15 5 26 9 17 7 19 -14 16 -21 -2 -23 1 -15 15 6 13 3 24 -16 44 -26 28 -32
43 -11 31 8 -5 8 -2 -2 9 -7 9 -21 17 -29 17 -13 0 -12 3 4 15 18 15 18 15 0
8 -11 -4 -17 -2 -13 3 9 15 -6 33 -31 37 -12 2 -24 6 -28 10 -4 3 6 4 20 1 23
-4 25 -3 14 10 -7 7 -16 12 -20 9 -5 -2 -8 3 -8 12 0 10 5 13 12 9 7 -4 8 -3
4 5 -4 6 -11 9 -16 6 -13 -8 -33 23 -26 41 5 13 4 14 -7 6 -8 -7 -17 -9 -21
-5 -4 4 3 15 15 24 l22 17 -27 -3 c-21 -3 -25 -1 -16 10 12 15 3 45 -14 45 -6
0 -4 5 4 10 12 8 10 10 -10 10 -22 1 -23 2 -7 11 19 11 23 29 6 29 -5 0 -7 -5
-4 -10 3 -6 -1 -10 -9 -10 -8 0 -18 5 -22 12 -5 7 -3 8 6 3 10 -6 12 0 8 24
-2 17 -1 31 4 31 5 0 3 6 -4 14 -7 7 -20 11 -28 9 -12 -4 -13 -3 -1 5 8 6 11
17 8 27 -5 11 -3 14 6 9 6 -4 9 -4 5 1 -4 4 -3 14 2 20 7 9 5 17 -7 26 -16 13
-17 12 -5 -3 8 -9 9 -19 4 -22 -13 -8 -22 30 -10 42 6 6 5 12 -3 17 -8 5 -10
4 -5 -3 5 -8 1 -10 -9 -5 -11 4 -13 8 -6 13 16 10 -3 90 -21 90 -6 0 -5 7 2
15 10 12 10 15 -1 15 -10 0 -10 3 -1 12 7 7 12 17 12 23 0 5 -5 3 -11 -5 -7
-11 -9 -1 -7 37 3 44 1 50 -12 40 -8 -6 -12 -7 -8 -3 4 5 3 15 -3 23 -9 10 -7
13 7 14 14 1 13 3 -6 9 -16 5 -19 8 -8 9 9 1 19 5 23 10 3 6 -4 8 -16 6 -18
-4 -19 -2 -8 11 11 14 10 18 -4 29 -10 7 -13 15 -7 17 12 4 23 48 11 48 -4 0
-8 6 -9 13 0 6 -3 21 -5 32 -2 11 1 24 7 28 6 5 -2 6 -19 3 -16 -3 -24 -3 -17
0 7 3 17 15 24 27 l11 22 -24 -20 c-13 -11 -18 -13 -11 -5 6 8 12 22 12 33 0
21 -24 49 -34 40 -3 -4 -6 -4 -6 -1 0 3 8 12 17 19 10 8 14 9 10 2 -4 -6 -3
-14 2 -17 5 -4 8 2 6 11 -1 10 -8 17 -15 15 -7 -2 -9 5 -5 20 5 18 4 20 -4 8
-8 -12 -11 -8 -11 18 0 31 -12 42 -25 22 -3 -5 -1 -10 6 -10 7 0 10 -3 6 -6
-14 -14 -26 7 -15 26 7 10 16 17 20 14 4 -3 5 2 2 10 -3 9 -12 16 -20 16 -8 0
-14 5 -14 11 0 5 5 7 12 3 7 -4 8 -3 4 5 -4 6 -11 9 -16 6 -4 -3 -11 2 -14 11
-3 9 -12 14 -19 11 -8 -3 -14 1 -14 8 0 7 7 11 16 8 9 -2 7 1 -4 8 -11 7 -24
18 -28 26 -5 7 -13 10 -19 7 -8 -5 -9 -1 -5 10 6 14 3 16 -14 11 -18 -6 -20
-4 -15 17 3 12 3 17 0 11 -3 -7 -10 -13 -16 -13 -14 0 -76 68 -69 77 3 5 -1 2
-9 -4 -22 -20 -32 -15 -24 9 6 21 6 21 -10 5 -20 -19 -32 -21 -41 -7 -4 6 -11
7 -17 4 -7 -5 -8 -2 -3 5 5 9 10 10 18 2 14 -14 27 -14 27 0 0 5 -4 8 -9 4 -5
-3 -13 0 -16 6 -4 5 -13 8 -21 5 -13 -5 -18 6 -15 27 0 4 -2 6 -6 6 -20 -3
-34 2 -28 11 4 6 -1 7 -11 3 -12 -4 -15 -3 -10 6 5 8 3 12 -5 10 -26 -3 -39 1
-39 12 0 8 4 8 14 0 11 -9 16 -9 22 0 4 7 3 9 -4 5 -6 -3 -14 -2 -17 4 -5 8
-11 8 -20 0 -10 -8 -15 -8 -21 1 -5 8 -3 10 7 4 8 -5 5 1 -5 13 -11 12 -21 20
-24 17 -3 -2 -11 3 -18 13 -9 13 -9 19 -1 25 8 6 6 7 -5 3 -12 -3 -24 3 -34
20 -10 14 -23 23 -30 20 -16 -6 -28 10 -14 19 6 4 7 11 4 17 -4 7 -2 8 5 4 6
-4 9 -12 6 -17 -4 -5 -1 -9 4 -9 18 0 12 18 -11 34 -12 8 -26 12 -31 9 -6 -3
-7 -1 -3 5 4 6 12 10 19 8 7 -1 9 -1 5 1 -5 3 -8 13 -8 23 0 10 3 20 8 23 4 2
1 2 -5 1 -7 -2 -13 0 -13 4 0 5 6 14 13 21 6 7 8 12 2 11 -22 -5 -27 1 -14 18
13 15 12 16 -3 3 -10 -7 -15 -18 -11 -25 4 -7 1 -6 -9 1 -8 7 -19 9 -23 5 -5
-4 -5 -1 -1 6 4 7 10 10 14 8 4 -2 14 6 23 18 16 21 16 22 -4 24 -16 1 -18 -1
-8 -7 7 -5 9 -11 5 -14 -5 -3 -15 1 -22 9 -7 8 -9 14 -3 14 10 0 9 19 -2 38
-5 6 -6 12 -2 12 3 0 1 9 -5 20 -6 11 -16 17 -22 14 -7 -4 -8 -3 -4 5 4 6 12
9 17 6 5 -4 9 -1 9 4 0 6 5 11 11 11 8 0 8 -5 -1 -15 -8 -9 -9 -15 -2 -15 6 0
9 -10 7 -22 -4 -21 -4 -21 13 -5 15 16 15 19 2 27 -13 9 -13 11 0 19 12 8 12
13 -4 30 -11 12 -15 21 -10 21 5 0 -2 9 -16 20 -20 16 -21 19 -5 13 18 -6 19
-5 6 10 -8 10 -11 20 -7 24 3 3 6 1 6 -5 0 -7 7 -12 16 -12 14 0 15 -2 3 -17
-12 -14 -12 -16 0 -8 8 5 12 4 8 -1 -3 -6 -2 -16 2 -23 5 -7 8 4 7 27 0 22 -5
38 -10 34 -5 -3 -7 2 -3 11 4 11 -2 22 -16 33 -22 16 -22 16 -1 10 18 -6 21
-3 19 19 -2 14 1 25 6 25 5 0 1 8 -8 18 -10 10 -25 17 -33 15 -9 -3 -8 0 3 7
15 10 21 8 33 -7 14 -17 14 -16 4 5 -6 12 -15 22 -21 22 -6 0 -7 5 -4 10 4 6
11 7 17 4 5 -4 3 5 -6 18 -9 14 -13 28 -9 33 5 4 3 5 -3 2 -8 -5 -12 4 -12 28
0 20 5 33 11 32 6 -1 11 3 12 8 0 6 4 17 10 25 8 13 7 13 -8 1 -9 -7 -14 -18
-10 -25 4 -6 -1 -5 -10 3 -11 9 -17 10 -17 2 0 -6 -5 -11 -11 -11 -8 0 -8 5 1
15 7 8 16 12 21 9 10 -6 13 7 10 49 0 15 4 27 10 27 6 0 1 9 -12 21 -13 11
-19 18 -13 15 7 -3 12 5 12 21 l0 27 -19 -23 c-21 -26 -25 -21 -7 9 11 16 9
22 -7 36 -19 15 -19 15 5 1 24 -13 25 -13 26 9 1 13 -2 24 -8 24 -5 0 -6 -4
-3 -10 3 -6 -1 -7 -10 -3 -9 3 -13 9 -8 12 4 3 14 17 21 30 12 20 12 23 0 19
-9 -4 -14 2 -16 15 -1 18 1 19 9 7 9 -13 10 -13 6 1 -3 9 0 22 6 29 7 7 7 10
1 7 -6 -3 -16 3 -24 13 -8 10 -18 16 -23 13 -5 -3 -4 5 3 17 10 20 10 22 -3
17 -20 -8 -29 3 -16 20 9 10 8 13 0 13 -7 0 -9 4 -6 10 4 6 -1 7 -11 3 -14 -5
-16 -2 -12 15 4 15 2 19 -9 15 -12 -5 -14 -1 -8 18 6 22 6 22 -6 6 -13 -16
-14 -15 -15 8 -1 14 3 25 10 25 6 0 2 6 -9 12 -11 6 -24 17 -28 25 -5 7 -12
11 -18 8 -5 -4 -6 2 -2 11 4 12 3 15 -5 10 -7 -4 -12 -3 -12 3 0 5 6 12 13 15
6 3 1 3 -12 0 -16 -4 -21 -3 -17 5 4 6 2 11 -3 11 -6 0 -10 3 -10 8 1 4 1 14
0 22 -1 13 -2 13 -11 0 -8 -13 -11 -13 -22 -1 -9 10 -10 12 -1 7 9 -5 11 -2 7
8 -3 9 -13 16 -21 16 -8 0 -12 4 -9 9 7 10 -22 24 -34 16 -4 -2 -21 9 -39 25
-31 30 -48 39 -36 20 3 -5 2 -10 -3 -10 -16 0 -22 13 -12 25 7 8 5 12 -5 12
-8 0 -12 -4 -10 -8 3 -3 -4 -9 -15 -12 -17 -4 -18 -2 -10 14 8 15 7 17 -5 13
-8 -4 -15 -11 -15 -17 0 -6 -3 -7 -6 -4 -4 4 -1 13 6 22 8 9 8 15 2 15 -6 0
-14 -5 -17 -10 -4 -6 -11 -7 -17 -4 -8 5 -9 1 -4 -12 5 -14 4 -16 -5 -7 -14
14 -2 36 14 26 7 -4 6 0 -2 10 -13 17 -26 24 -17 9 2 -4 -7 -13 -22 -20 -19
-9 -23 -9 -14 0 16 16 15 25 -3 25 -8 0 -12 -4 -9 -9 8 -13 -6 -9 -21 6 -8 7
-11 17 -7 21 4 5 2 5 -5 1 -7 -4 -10 -14 -7 -24 2 -9 -1 -7 -7 6 -15 27 1 24
-198 27 -128 1 -164 -2 -168 -12z m244 1 c-3 -3 -12 -4 -19 -1 -8 3 -5 6 6 6
11 1 17 -2 13 -5z m44 -17 c-10 -9 -11 -8 -5 6 3 10 9 15 12 12 3 -3 0 -11 -7
-18z m50 8 c5 4 6 -1 2 -10 -5 -13 -7 -14 -14 -3 -5 7 -8 18 -8 23 0 6 3 4 6
-3 2 -6 9 -10 14 -7z m-406 -35 c3 -5 1 -10 -4 -10 -6 0 -11 5 -11 10 0 6 2
10 4 10 3 0 8 -4 11 -10z m736 -113 c-10 -9 -11 -8 -5 6 3 10 9 15 12 12 3 -3
0 -11 -7 -18z m284 -357 c3 -6 -1 -7 -9 -4 -18 7 -21 14 -7 14 6 0 13 -4 16
-10z m-35 -24 c0 -2 -7 -7 -16 -10 -8 -3 -12 -2 -9 4 6 10 25 14 25 6z m54
-215 c-2 -3 -12 3 -22 13 -16 17 -16 18 5 5 12 -7 20 -15 17 -18z m3 -46 c0
-8 -4 -15 -9 -15 -10 0 -11 14 -1 23 9 10 10 9 10 -8z m-17 -127 c0 -4 -4 -8
-9 -8 -6 0 -12 4 -15 8 -3 5 1 9 9 9 8 0 15 -4 15 -9z m20 -44 c-6 -6 -7 -14
-3 -17 3 -4 1 -7 -6 -7 -7 0 -11 6 -8 14 3 7 0 19 -6 26 -9 10 -9 11 1 6 7 -4
12 -2 12 6 0 10 3 9 10 -2 5 -9 5 -19 0 -26z m17 -69 c4 -4 3 -5 -4 -1 -6 3
-14 2 -18 -4 -3 -5 2 -10 12 -10 15 0 16 -2 3 -10 -17 -11 -19 -9 -25 18 -4
20 16 25 32 7z m0 -81 c-3 -3 -12 -4 -19 -1 -8 3 -5 6 6 6 11 1 17 -2 13 -5z
m-82 -33 c3 -5 2 -12 -3 -15 -5 -3 -9 1 -9 9 0 17 3 19 12 6z m80 -71 c12 -15
14 -20 4 -12 -9 6 -18 10 -20 7 -3 -2 -6 5 -6 17 -1 11 -1 19 0 17 1 -2 11
-15 22 -29z m-21 -120 c-6 -6 -10 -3 -10 10 0 13 4 16 10 10 7 -7 7 -13 0 -20z
m56 -85 c0 -2 -10 -9 -22 -15 -22 -11 -22 -10 -4 4 21 17 26 19 26 11z m-8
-57 c-8 -8 -9 -4 -5 13 4 13 8 18 11 10 2 -7 -1 -18 -6 -23z m18 -42 c0 -2 -8
-10 -17 -17 -16 -13 -17 -12 -4 4 13 16 21 21 21 13z m37 -68 c-3 -8 -6 -5 -6
6 -1 11 2 17 5 13 3 -3 4 -12 1 -19z m38 -28 c16 -17 16 -20 3 -15 -9 4 -19
13 -22 21 -7 19 -2 18 19 -6z m48 -55 c-7 -21 -12 -19 -10 4 0 11 5 18 9 15 4
-3 5 -11 1 -19z m82 -63 c-3 -3 -11 0 -18 7 -9 10 -8 11 6 5 10 -3 15 -9 12
-12z m55 -62 c0 -5 -2 -10 -4 -10 -3 0 -8 5 -11 10 -3 6 -1 10 4 10 6 0 11 -4
11 -10z m50 -16 c0 -8 -19 -13 -24 -6 -3 5 1 9 9 9 8 0 15 -2 15 -3z m70 -9
c14 9 34 -25 23 -36 -8 -8 -11 -6 -10 7 1 10 -4 19 -12 19 -8 0 -15 6 -17 13
-1 7 0 8 3 2 2 -5 8 -8 13 -5z m-1976 -13 c3 -5 -1 -9 -9 -9 -8 0 -12 4 -9 9
3 4 7 8 9 8 2 0 6 -4 9 -8z m1909 -17 c-3 -9 -8 -14 -10 -11 -3 3 -2 9 2 15 9
16 15 13 8 -4z m-2037 -29 c0 -14 -3 -23 -7 -20 -6 3 -6 22 0 42 3 10 7 -2 7
-22z m-46 -11 c7 -9 8 -15 2 -15 -5 0 -12 7 -16 15 -3 8 -4 15 -2 15 2 0 9 -7
16 -15z m2224 -6 c3 -3 -4 -5 -14 -6 -11 -1 -22 2 -24 6 -5 8 30 8 38 0z m62
-43 c2 -14 1 -26 -3 -26 -5 0 -9 14 -9 31 -2 35 5 33 12 -5z m51 -78 c-3 -8
-6 -5 -6 6 -1 11 2 17 5 13 3 -3 4 -12 1 -19z m-2462 2 c-6 -9 8 -14 28 -11 5
1 6 -3 2 -9 -4 -7 -12 -7 -26 0 -17 9 -19 30 -3 30 3 0 2 -4 -1 -10z m2355
-25 c0 -5 -5 -3 -10 5 -5 8 -10 20 -10 25 0 6 5 3 10 -5 5 -8 10 -19 10 -25z
m140 21 c0 -2 -7 -9 -15 -16 -13 -11 -14 -10 -9 4 5 14 24 23 24 12z m-56 -54
c3 -5 -1 -9 -9 -9 -8 0 -12 4 -9 9 3 4 7 8 9 8 2 0 6 -4 9 -8z m-2477 -19 c-4
-3 -1 -13 6 -22 11 -14 10 -14 -5 -2 -16 12 -16 31 -1 31 4 0 3 -3 0 -7z
m2403 -3 c8 -5 11 -10 5 -10 -5 0 -17 5 -25 10 -8 5 -10 10 -5 10 6 0 17 -5
25 -10z m65 -20 c3 -5 1 -10 -4 -10 -6 0 -11 5 -11 10 0 6 2 10 4 10 3 0 8 -4
11 -10z m25 -35 c0 -7 -30 -13 -34 -7 -3 4 4 9 15 9 10 1 19 0 19 -2z m15 -44
c3 -5 2 -12 -3 -15 -5 -3 -9 1 -9 9 0 17 3 19 12 6z m60 -9 c-3 -3 -11 0 -18
7 -9 10 -8 11 6 5 10 -3 15 -9 12 -12z m-75 -32 c0 -5 -5 -10 -11 -10 -5 0 -7
5 -4 10 3 6 8 10 11 10 2 0 4 -4 4 -10z m76 -42 c3 -4 -1 -5 -10 -4 -8 1 -18
5 -22 8 -3 4 1 5 10 4 8 -1 18 -5 22 -8z m34 8 c0 -3 -4 -8 -10 -11 -5 -3 -10
-1 -10 4 0 6 5 11 10 11 6 0 10 -2 10 -4z m4 -35 c3 -5 -1 -11 -9 -14 -9 -4
-12 -1 -8 9 6 16 10 17 17 5z m11 -52 c-4 -5 -12 -9 -18 -8 -9 0 -8 2 1 6 6 2
9 10 6 15 -4 7 -2 8 5 4 6 -4 9 -12 6 -17z m-12 -54 c-3 -9 -8 -14 -10 -11 -3
3 -2 9 2 15 9 16 15 13 8 -4z m17 -219 c0 -2 -8 -10 -17 -17 -16 -13 -17 -12
-4 4 13 16 21 21 21 13z m55 -57 c-4 -5 -12 -9 -18 -8 -9 0 -8 2 1 6 6 2 9 10
6 15 -4 7 -2 8 5 4 6 -4 9 -12 6 -17z m-2869 -69 c0 -16 -4 -30 -8 -30 -4 0
-6 10 -4 23 3 12 5 25 5 30 1 4 3 7 5 7 2 0 3 -13 2 -30z m2914 -114 c0 -3 -4
-8 -10 -11 -5 -3 -10 -1 -10 4 0 6 5 11 10 11 6 0 10 -2 10 -4z m-2382 -125
c-2 -21 3 -43 9 -38 12 13 41 -47 32 -65 -7 -12 -4 -20 8 -27 10 -6 14 -11 9
-11 -6 0 -1 -7 10 -15 19 -14 19 -14 -1 -15 -16 0 -17 -2 -5 -9 8 -6 18 -7 22
-5 4 3 5 -2 2 -10 -3 -9 -10 -13 -15 -10 -17 10 -9 -5 13 -25 19 -18 19 -21 4
-27 -15 -6 -15 -7 1 -21 10 -8 12 -12 6 -8 -9 4 -11 1 -7 -9 3 -9 11 -13 18
-9 7 4 6 1 -2 -9 -14 -17 -24 -80 -11 -73 4 3 10 1 14 -5 3 -5 1 -10 -4 -10
-6 0 -11 -7 -11 -16 0 -8 4 -13 9 -10 5 4 4 -5 -2 -18 -7 -13 -16 -22 -21 -19
-5 4 -6 1 -2 -5 4 -6 -2 -20 -14 -32 -11 -11 -17 -20 -14 -20 4 0 1 -7 -6 -15
-10 -12 -10 -15 1 -15 12 0 12 -2 0 -9 -8 -5 -10 -14 -6 -21 6 -9 4 -11 -5 -5
-10 6 -12 4 -7 -7 7 -19 -43 -78 -70 -83 -10 -2 -20 -4 -23 -4 -3 -1 2 -6 10
-11 13 -8 12 -10 -3 -10 -15 0 -16 -3 -7 -20 9 -16 8 -20 -7 -21 -11 0 -13 -3
-5 -6 6 -2 12 -9 12 -14 0 -4 -7 -5 -17 -2 -11 4 -14 3 -9 -5 11 -18 -10 -14
-29 4 -9 9 -14 23 -11 30 3 8 1 14 -5 14 -6 0 -7 5 -4 10 4 6 11 8 16 5 5 -3
6 1 3 9 -3 9 -11 13 -18 9 -7 -4 -7 -2 1 7 9 9 9 19 2 33 -7 12 -7 17 -1 13 5
-3 12 1 16 9 3 8 0 14 -7 12 -7 -1 -13 12 -15 31 -2 22 -7 30 -15 25 -8 -4 -7
-1 1 9 9 12 10 18 2 23 -8 5 -8 11 1 21 9 11 9 14 -1 14 -8 0 -11 12 -8 34 3
24 0 32 -9 29 -7 -3 -13 0 -13 6 0 6 7 11 15 11 8 0 15 5 15 10 0 5 -6 9 -12
8 -15 -3 -18 32 -5 50 6 7 5 17 -2 26 -9 10 -7 17 5 27 10 8 19 13 21 12 1 -2
3 -1 3 2 0 3 6 18 14 34 9 16 12 31 9 34 -3 4 0 13 7 22 7 8 10 22 6 30 -4 11
-2 14 6 9 8 -5 9 -2 5 10 -5 12 0 19 16 26 12 5 16 9 8 9 -11 1 -11 4 0 18 12
15 12 16 -6 10 -20 -7 -20 -7 -1 8 20 15 33 50 15 39 -5 -3 -9 -3 -9 0 0 8 50
33 66 33 7 0 13 -3 12 -6z m2406 -21 c-6 -6 -10 -3 -10 10 0 13 4 16 10 10 7
-7 7 -13 0 -20z m-3018 -565 c-1 -8 -5 -17 -8 -21 -5 -4 -4 16 1 34 3 9 9 -1
7 -13z m-85 -608 c-10 -9 -11 -8 -5 6 3 10 9 15 12 12 3 -3 0 -11 -7 -18z
m-515 -939 c4 -7 3 -8 -4 -4 -7 4 -12 2 -12 -5 0 -7 -3 -10 -6 -6 -6 5 3 27
11 27 2 0 7 -5 11 -12z"/>
<path d="M2476 3105 c4 -8 11 -15 16 -15 6 0 5 6 -2 15 -7 8 -14 15 -16 15 -2
0 -1 -7 2 -15z"/>
<path d="M2285 2880 c-3 -5 1 -10 10 -10 9 0 13 5 10 10 -3 6 -8 10 -10 10 -2
0 -7 -4 -10 -10z"/>
<path d="M2870 6130 c0 -5 5 -10 11 -10 5 0 7 5 4 10 -3 6 -8 10 -11 10 -2 0
-4 -4 -4 -10z"/>
<path d="M3646 6092 c-3 -5 1 -15 8 -21 11 -10 14 -9 12 3 -3 21 -13 29 -20
18z"/>
<path d="M2869 4893 c-13 -16 -12 -17 4 -4 16 13 21 21 13 21 -2 0 -10 -8 -17
-17z"/>
<path d="M4013 4855 c0 -8 4 -12 9 -9 4 3 8 9 8 15 0 5 -4 9 -8 9 -5 0 -9 -7
-9 -15z"/>
<path d="M2545 4449 c-4 -6 -4 -13 -1 -16 3 -4 6 -1 6 6 0 7 5 9 10 6 6 -3 10
-1 10 4 0 14 -17 14 -25 0z"/>
<path d="M2173 4233 c4 -7 0 -16 -9 -21 -11 -6 -13 -11 -5 -16 6 -4 11 -1 11
6 0 11 2 10 9 0 7 -11 9 -11 14 1 3 9 -2 21 -11 29 -10 8 -13 9 -9 1z"/>
<path d="M4930 3079 c0 -5 5 -7 10 -4 6 3 10 8 10 11 0 2 -4 4 -10 4 -5 0 -10
-5 -10 -11z"/>
<path d="M6170 2461 c0 -6 4 -12 8 -15 5 -3 9 1 9 9 0 8 -4 15 -9 15 -4 0 -8
-4 -8 -9z"/>
<path d="M5655 2400 c4 -6 11 -8 16 -5 14 9 11 15 -7 15 -8 0 -12 -5 -9 -10z"/>
<path d="M5615 2360 c-3 -5 -1 -10 4 -10 6 0 11 5 11 10 0 6 -2 10 -4 10 -3 0
-8 -4 -11 -10z"/>
<path d="M1449 1813 c-13 -16 -12 -17 4 -4 9 7 17 15 17 17 0 8 -8 3 -21 -13z"/>
</g>
</svg>
